Coordinates
version=1
nRows=14
nColumns=24
inDegrees=yes

Units are S.I. units (second, meters, Newtons, ...)
Angles are in degrees.

endheader
time	pelvis_tilt	pelvis_list	pelvis_rotation	pelvis_tx	pelvis_ty	pelvis_tz	hip_flexion_r	hip_adduction_r	hip_rotation_r	knee_angle_r	ankle_angle_r	subtalar_angle_r	mtp_angle_r	hip_flexion_l	hip_adduction_l	hip_rotation_l	knee_angle_l	ankle_angle_l	subtalar_angle_l	mtp_angle_l	lumbar_extension	lumbar_bending	lumbar_rotation
      0.01000000	     75.99006412	     -1.96091766	     -1.25673477	      0.53785726	      0.97876930	     -0.30187594	     -4.87986740	    -14.34254885	     -6.11124884	    -67.99880584	    -16.64515126	      0.00000000	      0.00000000	      4.96653452	     -8.67606849	     16.26046629	     -4.67028830	    -48.97145644	      0.00000000	      0.00000000	      0.00000000	      0.00000000	      0.00000000
      0.02000000	     75.13052696	     -1.14792119	     -1.19405132	      0.54314955	      0.97114107	     -0.29851913	     -4.55439063	    -15.53181879	     -6.48031693	    -67.06755762	    -20.66888023	      0.00000000	      0.00000000	      6.33144678	     -8.03201934	     16.52795821	     -4.76772928	    -48.86111661	      0.00000000	      0.00000000	      0.00000000	      0.00000000	      0.00000000
      0.03000000	     74.43006034	     -0.53141637	     -1.19983439	      0.54618505	      0.96701407	     -0.29687213	     -4.14001636	    -16.48330593	     -6.65781227	    -66.36607772	    -24.34301620	      0.00000000	      0.00000000	      7.42099678	     -7.51102076	     16.71634752	     -4.92295361	    -48.78732432	      0.00000000	      0.00000000	      0.00000000	      0.00000000	      0.00000000
      0.04000000	     73.87686093	     -0.10478900	     -1.23226402	      0.54734185	      0.96582901	     -0.29664670	     -3.66175105	    -17.16715340	     -6.70014489	    -65.90023827	    -27.46756893	      0.00000000	      0.00000000	      8.22668822	     -7.09923171	     16.83613484	     -5.11055335	    -48.74577341	      0.00000000	      0.00000000	      0.00000000	      0.00000000	      0.00000000
      0.05000000	     73.45998583	      0.15196860	     -1.25924956	      0.54748243	      0.96611713	     -0.29711004	     -3.18067985	    -17.58777151	     -6.66863101	    -65.65286186	    -29.84522587	      0.00000000	      0.00000000	      8.77106482	     -6.79559122	     16.90260404	     -5.29356119	    -48.72811291	      0.00000000	      0.00000000	      0.00000000	      0.00000000	      0.00000000
      0.06000000	     73.17194057	      0.27568807	     -1.26850340	      0.54743036	      0.96649711	     -0.29754214	     -2.77529108	    -17.79409595	     -6.61678567	    -65.57493912	    -31.36412209	      0.00000000	      0.00000000	      9.10715365	     -6.60592172	     16.93343954	     -5.43644185	    -48.72267230	      0.00000000	      0.00000000	      0.00000000	      0.00000000	      0.00000000
      0.07000000	     73.00378838	      0.31243427	     -1.26326514	      0.54749624	      0.96652206	     -0.29766483	     -2.50735154	    -17.85866518	     -6.58801958	    -65.59654608	    -32.03451678	      0.00000000	      0.00000000	      9.29268652	     -6.52381200	     16.94501523	     -5.51984149	    -48.71751228	      0.00000000	      0.00000000	      0.00000000	      0.00000000	      0.00000000
      0.08000000	     72.93844823	      0.30535035	     -1.25424472	      0.54760564	      0.96639117	     -0.29757791	     -2.40161555	    -17.85021880	     -6.61448078	    -65.64825717	    -31.98243351	      0.00000000	      0.00000000	      9.36898901	     -6.51994356	     16.94915882	     -5.54604698	    -48.70380514	      0.00000000	      0.00000000	      0.00000000	      0.00000000	      0.00000000
      0.09000000	     72.95137300	      0.28659453	     -1.25116842	      0.54765895	      0.96630831	     -0.29748560	     -2.44562486	    -17.81839154	     -6.71198255	    -65.68005420	    -31.41452237	      0.00000000	      0.00000000	      9.35987650	     -6.55045450	     16.95189244	     -5.53292169	    -48.67755282	      0.00000000	      0.00000000	      0.00000000	      0.00000000	      0.00000000
      0.10000000	     73.01724788	      0.27464426	     -1.25501879	      0.54766953	      0.96627689	     -0.29750216	     -2.60124502	    -17.79330509	     -6.87387150	    -65.66995809	    -30.57017005	      0.00000000	      0.00000000	      9.28296834	     -6.57621166	     16.95437507	     -5.50272096	    -48.63935223	      0.00000000	      0.00000000	      0.00000000	      0.00000000	      0.00000000
      0.11000000	     73.11535033	      0.27517752	     -1.25590936	      0.54768244	      0.96627107	     -0.29758327	     -2.81917335	    -17.79132611	     -7.07140248	    -65.62140827	    -29.67418198	      0.00000000	      0.00000000	      9.15946816	     -6.57730546	     16.95519166	     -5.47296075	    -48.59303501	      0.00000000	      0.00000000	      0.00000000	      0.00000000	      0.00000000
      0.12000000	     73.22937172	      0.28631505	     -1.24179199	      0.54769833	      0.96632949	     -0.29762020	     -3.05209245	    -17.81677739	     -7.26571055	    -65.55325184	    -28.89942754	      0.00000000	      0.00000000	      9.01566850	     -6.55402832	     16.95265028	     -5.45247007	    -48.54398912	      0.00000000	      0.00000000	      0.00000000	      0.00000000	      0.00000000
      0.13000000	     73.34413891	      0.30524130	     -1.21097840	      0.54769243	      0.96644859	     -0.29760474	     -3.26387153	    -17.86073772	     -7.42517899	    -65.48766396	    -28.34601210	      0.00000000	      0.00000000	      8.87769868	     -6.51769562	     16.94603365	     -5.44218935	    -48.49759560	      0.00000000	      0.00000000	      0.00000000	      0.00000000	      0.00000000
      0.14000000	     73.44496467	      0.32909773	     -1.17358091	      0.54765922	      0.96654709	     -0.29761209	     -3.43258374	    -17.90630322	     -7.53501612	    -65.44026378	    -28.04012083	      0.00000000	      0.00000000	      8.76474173	     -6.48060004	     16.93565491	     -5.43861462	    -48.45804669	      0.00000000	      0.00000000	      0.00000000	      0.00000000	      0.00000000
